<?xml version="1.0" encoding="UTF-8" standalone="no"?>
<svg id="ExportContainer_SVG" width="900" height="600" viewBox="0 0 900 600" xmlns="http://www.w3.org/2000/svg" xmlns:xlink="http://www.w3.org/1999/xlink" version="2.0" style="font-size:10px;font-family:Calibri,Verdana,Arial,sans-serif"><defs><rect id="rect0" x="4" y="4" width="34.55736812322409" height="56.34583852955771"/><rect id="rect1" x="4" y="66.34583852955771" width="34.55736812322409" height="13.044806170737942"/><rect id="rect2" x="4" y="85.39064470029565" width="34.55736812322409" height="18.338661778524028"/><rect id="rect3" x="4" y="109.72930647881968" width="34.55736812322409" height="262.34409768106406"/><rect id="rect4" x="4" y="378.07340415988375" width="34.55736812322409" height="168.74268008339794"/><rect id="rect5" x="4" y="552.8160842432817" width="34.55736812322409" height="43.18391575671842"/><rect id="rect6" x="44.55736812322409" y="4" width="123.92250425793972" height="96.75887406365827"/><rect id="rect7" x="170.4798723811638" y="4" width="22.019965682135194" height="96.75887406365827"/><rect id="rect8" x="44.55736812322409" y="102.75887406365827" width="52.50025191558827" height="73.24752876866982"/><rect id="rect9" x="99.05762003881236" y="102.75887406365827" width="93.44221802448664" height="73.24752876866982"/><rect id="rect10" x="44.55736812322409" y="178.0064028323281" width="71.93893219882739" height="123.91290581070626"/><rect id="rect11" x="118.49630032205147" y="178.0064028323281" width="74.00353774124756" height="123.91290581070626"/><rect id="rect12" x="44.55736812322409" y="303.91930864303436" width="31.773160585254026" height="103.93814634142825"/><rect id="rect13" x="78.33052870847811" y="303.91930864303436" width="31.227301553857302" height="103.93814634142825"/><rect id="rect14" x="111.55783026233541" y="303.91930864303436" width="80.94200780096361" height="103.93814634142825"/><rect id="rect15" x="44.55736812322409" y="409.8574549844626" width="29.62531014860972" height="96.84800874380102"/><rect id="rect16" x="76.18267827183381" y="409.8574549844626" width="40.444459657265526" height="96.84800874380102"/><rect id="rect17" x="118.62713792909933" y="409.8574549844626" width="73.87270013419963" height="96.84800874380102"/><rect id="rect18" x="44.55736812322409" y="508.7054637282636" width="19.688612871250704" height="42.03379888318119"/><rect id="rect19" x="44.55736812322409" y="552.7392626114448" width="19.688612871250704" height="43.260737388555185"/><rect id="rect20" x="66.24598099447479" y="508.7054637282636" width="126.25385706882437" height="43.34254949058624"/><rect id="rect21" x="66.24598099447479" y="554.0480132188499" width="126.25385706882437" height="41.95198678115014"/><rect id="rect22" x="198.499838063299" y="2.292561022975539" width="162.459466718917" height="2"/><rect id="rect23" x="198.499838063299" y="8.585122045951078" width="162.459466718917" height="13.867015963791662"/><rect id="rect24" x="198.499838063299" y="28.45213800974274" width="84.80394327669282" height="2.2229608982171385"/><rect id="rect25" x="285.3037813399918" y="28.45213800974274" width="75.6555234422242" height="2.2229608982171385"/><rect id="rect26" x="198.499838063299" y="36.67509890795988" width="58.30211499219061" height="111.92416698990921"/><rect id="rect27" x="258.8019530554896" y="36.67509890795988" width="102.1573517267264" height="111.92416698990921"/><rect id="rect28" x="198.499838063299" y="150.5992658978691" width="15.319363345047265" height="63.31549824197748"/><rect id="rect29" x="215.81920140834626" y="150.5992658978691" width="63.14920387050046" height="63.31549824197748"/><rect id="rect30" x="280.9684052788467" y="150.5992658978691" width="79.99089950336929" height="63.31549824197748"/><rect id="rect31" x="198.499838063299" y="215.91476413984657" width="70.60114659166194" height="78.61634669138101"/><rect id="rect32" x="271.10098465496094" y="215.91476413984657" width="38.75070382022119" height="78.61634669138101"/><rect id="rect33" x="311.85168847518213" y="215.91476413984657" width="49.107616307033936" height="78.61634669138101"/><rect id="rect34" x="198.499838063299" y="296.5311108312276" width="39.332707169656544" height="34.0011286165564"/><rect id="rect35" x="239.83254523295554" y="296.5311108312276" width="121.12675954926047" height="34.0011286165564"/><rect id="rect36" x="198.499838063299" y="332.532239447784" width="162.459466718917" height="98.93813727627116"/><rect id="rect37" x="198.499838063299" y="433.47037672405514" width="65.04811806865851" height="47.63967942438558"/><rect id="rect38" x="265.5479561319575" y="433.47037672405514" width="62.56800134233271" height="47.63967942438558"/><rect id="rect39" x="330.1159574742902" y="433.47037672405514" width="13.083322008468713" height="47.63967942438558"/><rect id="rect40" x="345.1992794827589" y="433.47037672405514" width="15.760025299457027" height="47.63967942438558"/><rect id="rect41" x="198.499838063299" y="483.1100561484407" width="81.73492387001252" height="24.527007131272114"/><rect id="rect42" x="198.499838063299" y="509.63706327971283" width="81.73492387001252" height="59.83592958901511"/><rect id="rect43" x="198.499838063299" y="571.4729928687279" width="81.73492387001252" height="24.527007131272057"/><rect id="rect44" x="282.2347619333115" y="483.1100561484407" width="15.066108518445503" height="57.24326720131313"/><rect id="rect45" x="299.300870451757" y="483.1100561484407" width="38.11785360159854" height="57.24326720131313"/><rect id="rect46" x="339.41872405335556" y="483.1100561484407" width="21.540580728860448" height="57.24326720131313"/><rect id="rect47" x="282.2347619333115" y="542.3533233497539" width="67.6482248492581" height="53.64667665024615"/><rect id="rect48" x="351.8829867825696" y="542.3533233497539" width="9.076317999646392" height="53.64667665024501"/><rect id="rect49" x="366.959304782216" y="4" width="61.61320724067514" height="75.7091530045015"/><rect id="rect50" x="434.57251202289115" y="4" width="70.57587655372157" height="75.7091530045015"/><rect id="rect51" x="511.1483885766127" y="4" width="94.47211789905163" height="75.7091530045015"/><rect id="rect52" x="607.6205064756643" y="4" width="51.21017016977032" height="55.8600957767012"/><rect id="rect53" x="607.6205064756643" y="61.8600957767012" width="51.21017016977032" height="17.8490572278003"/><rect id="rect54" x="660.8306766454347" y="4" width="35.264840503027244" height="14.809028233029991"/><rect id="rect55" x="660.8306766454347" y="20.80902823302999" width="35.264840503027244" height="58.900124771471496"/><rect id="rect56" x="702.0955171484619" y="4" width="86.3154583705417" height="75.70915300450152"/><rect id="rect57" x="790.4109755190036" y="4" width="87.40794999605225" height="75.7091530045015"/><rect id="rect58" x="883.8189255150559" y="4" width="12.181074484944133" height="75.7091530045015"/><rect id="rect59" x="366.959304782216" y="84.4537155335039" width="109.83821950659194" height="2"/><rect id="rect60" x="366.959304782216" y="91.19827806250628" width="109.83821950659194" height="78.28407259915708"/><rect id="rect61" x="366.959304782216" y="171.48235066166336" width="23.709833032444635" height="53.34967797016168"/><rect id="rect62" x="392.66913781466064" y="171.48235066166336" width="49.605915894474435" height="53.34967797016168"/><rect id="rect63" x="444.2750537091351" y="171.48235066166336" width="32.52247057967287" height="53.34967797016168"/><rect id="rect64" x="366.959304782216" y="226.83202863182504" width="86.99597861551035" height="30.391548810974882"/><rect id="rect65" x="455.95528339772636" y="226.83202863182504" width="20.842240891081588" height="30.391548810974882"/><rect id="rect66" x="366.959304782216" y="259.2235774427999" width="56.27418035136168" height="87.99948529569377"/><rect id="rect67" x="425.2334851335777" y="259.2235774427999" width="51.56403915523026" height="87.99948529569377"/><rect id="rect68" x="366.959304782216" y="349.2230627384937" width="44.13346052390932" height="58.824860248183256"/><rect id="rect69" x="413.09276530612533" y="349.2230627384937" width="63.70475898268262" height="58.824860248183256"/><rect id="rect70" x="366.959304782216" y="410.04792298667695" width="50.254771241654225" height="62.707425200729006"/><rect id="rect71" x="419.21407602387023" y="410.04792298667695" width="21.502304479682493" height="62.707425200729006"/><rect id="rect72" x="442.7163805035527" y="410.04792298667695" width="34.08114378525522" height="62.707425200729006"/><rect id="rect73" x="366.959304782216" y="474.75534818740596" width="45.26509198043061" height="60.77745703038022"/><rect id="rect74" x="414.2243967626466" y="474.75534818740596" width="26.027696302208938" height="60.77745703038022"/><rect id="rect75" x="442.25209306485556" y="474.75534818740596" width="34.54543122395239" height="60.77745703038022"/><rect id="rect76" x="366.959304782216" y="537.5328052177862" width="53.91910975329603" height="58.467194782213824"/><rect id="rect77" x="422.87841453551204" y="537.5328052177862" width="53.91910975329591" height="58.46719478221394"/><rect id="rect78" x="482.79752428880795" y="85.7091530045015" width="9.674364146222729" height="43.278376302633376"/><rect id="rect79" x="498.4718884350307" y="85.7091530045015" width="73.2836889810792" height="43.278376302633376"/><rect id="rect80" x="577.7555774161099" y="85.7091530045015" width="66.69263910198379" height="43.278376302633376"/><rect id="rect81" x="646.4482165180937" y="85.7091530045015" width="57.12412500553273" height="43.278376302633376"/><rect id="rect82" x="705.5723415236264" y="85.7091530045015" width="51.74848527759377" height="15.578943100977611"/><rect id="rect83" x="705.5723415236264" y="103.28809610547911" width="51.74848527759377" height="25.699433201655765"/><rect id="rect84" x="759.3208268012202" y="85.7091530045015" width="48.912441897752615" height="43.278376302633376"/><rect id="rect85" x="810.2332686989728" y="85.7091530045015" width="45.11042094639026" height="43.278376302633376"/><rect id="rect86" x="861.3436896453629" y="85.7091530045015" width="34.6563103546373" height="43.278376302633376"/><rect id="rect87" x="482.79752428880795" y="134.98752930713488" width="190.1768573635028" height="136.25651234759243"/><rect id="rect88" x="674.9743816523107" y="134.98752930713488" width="22.020752168336458" height="136.25651234759243"/><rect id="rect89" x="702.9951338206472" y="134.98752930713488" width="103.70956314851014" height="136.25651234759243"/><rect id="rect90" x="812.7046969691573" y="134.98752930713488" width="62.664545244353235" height="40.05491562671267"/><rect id="rect91" x="877.3692422135106" y="134.98752930713488" width="18.630757786489426" height="40.05491562671267"/><rect id="rect92" x="812.7046969691573" y="177.04244493384755" width="25.32849126733197" height="58.041099959245884"/><rect id="rect93" x="840.0331882364893" y="177.04244493384755" width="26.400652872137016" height="58.041099959245884"/><rect id="rect94" x="868.4338411086263" y="177.04244493384755" width="27.566158891373675" height="58.041099959245884"/><rect id="rect95" x="812.7046969691573" y="237.08354489309343" width="36.13869317439185" height="34.16049676163388"/><rect id="rect96" x="850.8433901435492" y="237.08354489309343" width="45.156609856450814" height="34.16049676163388"/><rect id="rect97" x="482.79752428880795" y="277.2440416547273" width="374.287316435535" height="2.4034921873256962"/><rect id="rect98" x="482.79752428880795" y="285.647533842053" width="101.25323780518363" height="153.8947962496627"/><rect id="rect99" x="482.79752428880795" y="441.5423300917157" width="101.25323780518363" height="58.154000014530936"/><rect id="rect100" x="482.79752428880795" y="501.69633010624665" width="101.25323780518363" height="94.30366989375335"/><rect id="rect101" x="586.0507620939916" y="285.647533842053" width="26.242102241194402" height="108.54931969211611"/><rect id="rect102" x="614.292864335186" y="285.647533842053" width="242.79197638915696" height="108.54931969211611"/><rect id="rect103" x="586.0507620939916" y="396.1968535341691" width="107.56766555681759" height="76.03347418612037"/><rect id="rect104" x="586.0507620939916" y="474.2303277202895" width="107.56766555681759" height="121.7696722797105"/><rect id="rect105" x="695.6184276508092" y="396.1968535341691" width="42.30110658157503" height="21.649427037572593"/><rect id="rect106" x="739.9195342323842" y="396.1968535341691" width="31.698331401846758" height="21.649427037572593"/><rect id="rect107" x="773.617865634231" y="396.1968535341691" width="36.6084916921958" height="21.649427037572593"/><rect id="rect108" x="812.2263573264268" y="396.1968535341691" width="44.8584833979163" height="21.649427037572593"/><rect id="rect109" x="695.6184276508092" y="419.8462805717417" width="136.42254418266043" height="97.91640316419551"/><rect id="rect110" x="834.0409718334696" y="419.8462805717417" width="23.04386889087334" height="97.91640316419551"/><rect id="rect111" x="695.6184276508092" y="519.7626837359372" width="41.10510733558908" height="35.249864726005626"/><rect id="rect112" x="695.6184276508092" y="557.0125484619429" width="41.10510733558908" height="15.991326897575277"/><rect id="rect113" x="695.6184276508092" y="575.0038753595181" width="41.10510733558908" height="20.996124640481753"/><rect id="rect114" x="738.7235349863982" y="519.7626837359372" width="96.1815892348061" height="15.587566440103501"/><rect id="rect115" x="738.7235349863982" y="537.3502501760407" width="96.1815892348061" height="58.64974982395927"/><rect id="rect116" x="836.9051242212043" y="519.7626837359372" width="20.179716503138593" height="33.93130821411273"/><rect id="rect117" x="836.9051242212043" y="555.69399195005" width="20.179716503138593" height="40.30600804995004"/><rect id="rect118" x="863.0848407243429" y="277.2440416547273" width="32.91515927565706" height="25.770039083477855"/><rect id="rect119" x="863.0848407243429" y="309.01408073820517" width="32.91515927565706" height="33.44677524010291"/><rect id="rect120" x="863.0848407243429" y="348.4608559783081" width="32.91515927565706" height="96.96867316755214"/><rect id="rect121" x="863.0848407243429" y="451.4295291458602" width="12.126757968738843" height="44.17331116129202"/><rect id="rect122" x="881.2115986930818" y="451.4295291458602" width="14.788401306918217" height="44.17331116129202"/><rect id="rect123" x="863.0848407243429" y="501.60284030715223" width="32.91515927565706" height="94.39715969284299"/></defs><g><g id="ExportContainer_Group_GO0000278"><rect x="3" y="3" width="36.55736812322409" height="58.34583852955771" rx="2" style="stroke: gainsboro; fill: white;"/><g><rect x="4" y="4" width="34.55736812322409" height="56.34583852955771" rx="2" style="fill: crimson;"/><text fill="white" x="4" y="4" style="shape-inside: url(#rect0); text-align: center;">(GO0000278, representative) mitotic cell cycle</text></g></g><g id="ExportContainer_Group_GO0005975"><rect x="3" y="65.34583852955771" width="36.55736812322409" height="15.044806170737942" rx="2" style="stroke: gainsboro; fill: white;"/><g><rect x="4" y="66.34583852955771" width="34.55736812322409" height="13.044806170737942" rx="2" style="fill: lightseagreen;"/><text fill="white" x="4" y="66.34583852955771" style="shape-inside: url(#rect1); text-align: center;">(GO0005975, representative) carbohydrate metabolic process</text></g></g><g id="ExportContainer_Group_GO0006081"><rect x="3" y="84.39064470029565" width="36.55736812322409" height="20.338661778524028" rx="2" style="stroke: gainsboro; fill: white;"/><g><rect x="4" y="85.39064470029565" width="34.55736812322409" height="18.338661778524028" rx="2" style="fill: tomato;"/><text fill="white" x="4" y="85.39064470029565" style="shape-inside: url(#rect2); text-align: center;">(GO0006081, representative) cellular aldehyde metabolic process</text></g></g><g id="ExportContainer_Group_GO0006091"><rect x="3" y="108.72930647881968" width="36.55736812322409" height="264.34409768106406" rx="2" style="stroke: gainsboro; fill: white;"/><g><rect x="4" y="109.72930647881968" width="34.55736812322409" height="262.34409768106406" rx="2" style="fill: royalblue;"/><text fill="white" x="4" y="109.72930647881968" style="shape-inside: url(#rect3); text-align: center;">(GO0006091, representative) generation of precursor metabolites and energy</text></g></g><g id="ExportContainer_Group_GO0006457"><rect x="3" y="377.07340415988375" width="36.55736812322409" height="170.74268008339794" rx="2" style="stroke: gainsboro; fill: white;"/><g><rect x="4" y="378.07340415988375" width="34.55736812322409" height="168.74268008339794" rx="2" style="fill: mediumseagreen;"/><text fill="white" x="4" y="378.07340415988375" style="shape-inside: url(#rect4); text-align: center;">(GO0006457, representative) protein folding</text></g></g><g id="ExportContainer_Group_GO0006629"><rect x="3" y="551.8160842432817" width="36.55736812322409" height="45.18391575671842" rx="2" style="stroke: gainsboro; fill: white;"/><g><rect x="4" y="552.8160842432817" width="34.55736812322409" height="43.18391575671842" rx="2" style="fill: darkorchid;"/><text fill="white" x="4" y="552.8160842432817" style="shape-inside: url(#rect5); text-align: center;">(GO0006629, representative) lipid metabolic process</text></g></g><g id="ExportContainer_Group_GO0006890"><rect x="43.55736812322409" y="3" width="149.94246994007491" height="594" rx="2" style="stroke: gainsboro; fill: white;"/><g><rect x="44.55736812322409" y="4" width="123.92250425793972" height="96.75887406365827" rx="2" style="fill: darkorange;"/><text fill="white" x="44.55736812322409" y="4" style="shape-inside: url(#rect6); text-align: center;">(GO0006890, representative) retrograde vesicle-mediated transport, Golgi to endoplasmic reticulum</text></g><g><rect x="170.4798723811638" y="4" width="22.019965682135194" height="96.75887406365827" rx="2" style="fill: darkorange;"/><text fill="white" x="170.4798723811638" y="4" style="shape-inside: url(#rect7); text-align: center;">(GO0006810) transport</text></g><g><rect x="44.55736812322409" y="102.75887406365827" width="52.50025191558827" height="73.24752876866982" rx="2" style="fill: darkorange;"/><text fill="white" x="44.55736812322409" y="102.75887406365827" style="shape-inside: url(#rect8); text-align: center;">(GO0006839) mitochondrial transport</text></g><g><rect x="99.05762003881236" y="102.75887406365827" width="93.44221802448664" height="73.24752876866982" rx="2" style="fill: darkorange;"/><text fill="white" x="99.05762003881236" y="102.75887406365827" style="shape-inside: url(#rect9); text-align: center;">(GO0007034) vacuolar transport</text></g><g><rect x="44.55736812322409" y="178.0064028323281" width="71.93893219882739" height="123.91290581070626" rx="2" style="fill: darkorange;"/><text fill="white" x="44.55736812322409" y="178.0064028323281" style="shape-inside: url(#rect10); text-align: center;">(GO0008104) protein localization</text></g><g><rect x="118.49630032205147" y="178.0064028323281" width="74.00353774124756" height="123.91290581070626" rx="2" style="fill: darkorange;"/><text fill="white" x="118.49630032205147" y="178.0064028323281" style="shape-inside: url(#rect11); text-align: center;">(GO0016192) vesicle-mediated transport</text></g><g><rect x="44.55736812322409" y="303.91930864303436" width="31.773160585254026" height="103.93814634142825" rx="2" style="fill: darkorange;"/><text fill="white" x="44.55736812322409" y="303.91930864303436" style="shape-inside: url(#rect12); text-align: center;">(GO0017038) protein import</text></g><g><rect x="78.33052870847811" y="303.91930864303436" width="31.227301553857302" height="103.93814634142825" rx="2" style="fill: darkorange;"/><text fill="white" x="78.33052870847811" y="303.91930864303436" style="shape-inside: url(#rect13); text-align: center;">(GO0033036) macromolecule localization</text></g><g><rect x="111.55783026233541" y="303.91930864303436" width="80.94200780096361" height="103.93814634142825" rx="2" style="fill: darkorange;"/><text fill="white" x="111.55783026233541" y="303.91930864303436" style="shape-inside: url(#rect14); text-align: center;">(GO0048193) Golgi vesicle transport</text></g><g><rect x="44.55736812322409" y="409.8574549844626" width="29.62531014860972" height="96.84800874380102" rx="2" style="fill: darkorange;"/><text fill="white" x="44.55736812322409" y="409.8574549844626" style="shape-inside: url(#rect15); text-align: center;">(GO0051169) nuclear transport</text></g><g><rect x="76.18267827183381" y="409.8574549844626" width="40.444459657265526" height="96.84800874380102" rx="2" style="fill: darkorange;"/><text fill="white" x="76.18267827183381" y="409.8574549844626" style="shape-inside: url(#rect16); text-align: center;">(GO0051170) import into nucleus</text></g><g><rect x="118.62713792909933" y="409.8574549844626" width="73.87270013419963" height="96.84800874380102" rx="2" style="fill: darkorange;"/><text fill="white" x="118.62713792909933" y="409.8574549844626" style="shape-inside: url(#rect17); text-align: center;">(GO0051641) cellular localization</text></g><g><rect x="44.55736812322409" y="508.7054637282636" width="19.688612871250704" height="42.03379888318119" rx="2" style="fill: darkorange;"/><text fill="white" x="44.55736812322409" y="508.7054637282636" style="shape-inside: url(#rect18); text-align: center;">(GO0071702) organic substance transport</text></g><g><rect x="44.55736812322409" y="552.7392626114448" width="19.688612871250704" height="43.260737388555185" rx="2" style="fill: darkorange;"/><text fill="white" x="44.55736812322409" y="552.7392626114448" style="shape-inside: url(#rect19); text-align: center;">(GO0098660) inorganic ion transmembrane transport</text></g><g><rect x="66.24598099447479" y="508.7054637282636" width="126.25385706882437" height="43.34254949058624" rx="2" style="fill: darkorange;"/><text fill="white" x="66.24598099447479" y="508.7054637282636" style="shape-inside: url(#rect20); text-align: center;">(GO1902600) proton transmembrane transport</text></g><g><rect x="66.24598099447479" y="554.0480132188499" width="126.25385706882437" height="41.95198678115014" rx="2" style="fill: darkorange;"/><text fill="white" x="66.24598099447479" y="554.0480132188499" style="shape-inside: url(#rect21); text-align: center;">(GO1990542) mitochondrial transmembrane transport</text></g></g><g id="ExportContainer_Group_GO0007017"><rect x="197.499838063299" y="3" width="164.459466718917" height="0.5851220459510778" rx="2" style="stroke: gainsboro; fill: white;"/><g><rect x="198.499838063299" y="2.292561022975539" width="162.459466718917" height="2" rx="2" style="fill: slateblue;"/><text fill="white" x="198.499838063299" y="2.292561022975539" style="shape-inside: url(#rect22); text-align: center;">(GO0007017, representative) microtubule-based process</text></g></g><g id="ExportContainer_Group_GO0009056"><rect x="197.499838063299" y="7.585122045951078" width="164.459466718917" height="15.867015963791662" rx="2" style="stroke: gainsboro; fill: white;"/><g><rect x="198.499838063299" y="8.585122045951078" width="162.459466718917" height="13.867015963791662" rx="2" style="fill: lightsalmon;"/><text fill="black" x="198.499838063299" y="8.585122045951078" style="shape-inside: url(#rect23); text-align: center;">(GO0009056, representative) catabolic process</text></g></g><g id="ExportContainer_Group_GO0009058"><rect x="197.499838063299" y="27.45213800974274" width="164.459466718917" height="4.2229608982171385" rx="2" style="stroke: gainsboro; fill: white;"/><g><rect x="198.499838063299" y="28.45213800974274" width="84.80394327669282" height="2.2229608982171385" rx="2" style="fill: paleturquoise;"/><text fill="black" x="198.499838063299" y="28.45213800974274" style="shape-inside: url(#rect24); text-align: center;">(GO0009058, representative) biosynthetic process</text></g><g><rect x="285.3037813399918" y="28.45213800974274" width="75.6555234422242" height="2.2229608982171385" rx="2" style="fill: paleturquoise;"/><text fill="black" x="285.3037813399918" y="28.45213800974274" style="shape-inside: url(#rect25); text-align: center;">(GO0044238) primary metabolic process</text></g></g><g id="ExportContainer_Group_GO0009199"><rect x="197.499838063299" y="35.67509890795988" width="164.459466718917" height="561.3249010920401" rx="2" style="stroke: gainsboro; fill: white;"/><g><rect x="198.499838063299" y="36.67509890795988" width="58.30211499219061" height="111.92416698990921" rx="2" style="fill: gold;"/><text fill="black" x="198.499838063299" y="36.67509890795988" style="shape-inside: url(#rect26); text-align: center;">(GO0009199, representative) ribonucleoside triphosphate metabolic process</text></g><g><rect x="258.8019530554896" y="36.67509890795988" width="102.1573517267264" height="111.92416698990921" rx="2" style="fill: gold;"/><text fill="black" x="258.8019530554896" y="36.67509890795988" style="shape-inside: url(#rect27); text-align: center;">(GO0006508) proteolysis</text></g><g><rect x="198.499838063299" y="150.5992658978691" width="15.319363345047265" height="63.31549824197748" rx="2" style="fill: gold;"/><text fill="black" x="198.499838063299" y="150.5992658978691" style="shape-inside: url(#rect28); text-align: center;">(GO0006730) one-carbon metabolic process</text></g><g><rect x="215.81920140834626" y="150.5992658978691" width="63.14920387050046" height="63.31549824197748" rx="2" style="fill: gold;"/><text fill="black" x="215.81920140834626" y="150.5992658978691" style="shape-inside: url(#rect29); text-align: center;">(GO0009059) macromolecule biosynthetic process</text></g><g><rect x="280.9684052788467" y="150.5992658978691" width="79.99089950336929" height="63.31549824197748" rx="2" style="fill: gold;"/><text fill="black" x="280.9684052788467" y="150.5992658978691" style="shape-inside: url(#rect30); text-align: center;">(GO0009132) nucleoside diphosphate metabolic process</text></g><g><rect x="198.499838063299" y="215.91476413984657" width="70.60114659166194" height="78.61634669138101" rx="2" style="fill: gold;"/><text fill="black" x="198.499838063299" y="215.91476413984657" style="shape-inside: url(#rect31); text-align: center;">(GO0009141) nucleoside triphosphate metabolic process</text></g><g><rect x="271.10098465496094" y="215.91476413984657" width="38.75070382022119" height="78.61634669138101" rx="2" style="fill: gold;"/><text fill="black" x="271.10098465496094" y="215.91476413984657" style="shape-inside: url(#rect32); text-align: center;">(GO0009167) purine ribonucleoside monophosphate metabolic process</text></g><g><rect x="311.85168847518213" y="215.91476413984657" width="49.107616307033936" height="78.61634669138101" rx="2" style="fill: gold;"/><text fill="black" x="311.85168847518213" y="215.91476413984657" style="shape-inside: url(#rect33); text-align: center;">(GO0009185) ribonucleoside diphosphate metabolic process</text></g><g><rect x="198.499838063299" y="296.5311108312276" width="39.332707169656544" height="34.0011286165564" rx="2" style="fill: gold;"/><text fill="black" x="198.499838063299" y="296.5311108312276" style="shape-inside: url(#rect34); text-align: center;">(GO0009225) nucleotide-sugar metabolic process</text></g><g><rect x="239.83254523295554" y="296.5311108312276" width="121.12675954926047" height="34.0011286165564" rx="2" style="fill: gold;"/><text fill="black" x="239.83254523295554" y="296.5311108312276" style="shape-inside: url(#rect35); text-align: center;">(GO0009423) chorismate biosynthetic process</text></g><g><rect x="198.499838063299" y="332.532239447784" width="162.459466718917" height="98.93813727627116" rx="2" style="fill: gold;"/><text fill="black" x="198.499838063299" y="332.532239447784" style="shape-inside: url(#rect36); text-align: center;">(GO0019538) protein metabolic process</text></g><g><rect x="198.499838063299" y="433.47037672405514" width="65.04811806865851" height="47.63967942438558" rx="2" style="fill: gold;"/><text fill="black" x="198.499838063299" y="433.47037672405514" style="shape-inside: url(#rect37); text-align: center;">(GO0019693) ribose phosphate metabolic process</text></g><g><rect x="265.5479561319575" y="433.47037672405514" width="62.56800134233271" height="47.63967942438558" rx="2" style="fill: gold;"/><text fill="black" x="265.5479561319575" y="433.47037672405514" style="shape-inside: url(#rect38); text-align: center;">(GO0032787) monocarboxylic acid metabolic process</text></g><g><rect x="330.1159574742902" y="433.47037672405514" width="13.083322008468713" height="47.63967942438558" rx="2" style="fill: gold;"/><text fill="black" x="330.1159574742902" y="433.47037672405514" style="shape-inside: url(#rect39); text-align: center;">(GO0043648) dicarboxylic acid metabolic process</text></g><g><rect x="345.1992794827589" y="433.47037672405514" width="15.760025299457027" height="47.63967942438558" rx="2" style="fill: gold;"/><text fill="black" x="345.1992794827589" y="433.47037672405514" style="shape-inside: url(#rect40); text-align: center;">(GO0044249) cellular biosynthetic process</text></g><g><rect x="198.499838063299" y="483.1100561484407" width="81.73492387001252" height="24.527007131272114" rx="2" style="fill: gold;"/><text fill="black" x="198.499838063299" y="483.1100561484407" style="shape-inside: url(#rect41); text-align: center;">(GO0044271) cellular nitrogen compound biosynthetic process</text></g><g><rect x="198.499838063299" y="509.63706327971283" width="81.73492387001252" height="59.83592958901511" rx="2" style="fill: gold;"/><text fill="black" x="198.499838063299" y="509.63706327971283" style="shape-inside: url(#rect42); text-align: center;">(GO0046128) purine ribonucleoside metabolic process</text></g><g><rect x="198.499838063299" y="571.4729928687279" width="81.73492387001252" height="24.527007131272057" rx="2" style="fill: gold;"/><text fill="black" x="198.499838063299" y="571.4729928687279" style="shape-inside: url(#rect43); text-align: center;">(GO0046496) nicotinamide nucleotide metabolic process</text></g><g><rect x="282.2347619333115" y="483.1100561484407" width="15.066108518445503" height="57.24326720131313" rx="2" style="fill: gold;"/><text fill="black" x="282.2347619333115" y="483.1100561484407" style="shape-inside: url(#rect44); text-align: center;">(GO0055086) nucleobase-containing small molecule metabolic process</text></g><g><rect x="299.300870451757" y="483.1100561484407" width="38.11785360159854" height="57.24326720131313" rx="2" style="fill: gold;"/><text fill="black" x="299.300870451757" y="483.1100561484407" style="shape-inside: url(#rect45); text-align: center;">(GO0072521) purine-containing compound metabolic process</text></g><g><rect x="339.41872405335556" y="483.1100561484407" width="21.540580728860448" height="57.24326720131313" rx="2" style="fill: gold;"/><text fill="black" x="339.41872405335556" y="483.1100561484407" style="shape-inside: url(#rect46); text-align: center;">(GO0072524) pyridine-containing compound metabolic process</text></g><g><rect x="282.2347619333115" y="542.3533233497539" width="67.6482248492581" height="53.64667665024615" rx="2" style="fill: gold;"/><text fill="black" x="282.2347619333115" y="542.3533233497539" style="shape-inside: url(#rect47); text-align: center;">(GO1901566) organonitrogen compound biosynthetic process</text></g><g><rect x="351.8829867825696" y="542.3533233497539" width="9.076317999646392" height="53.64667665024501" rx="2" style="fill: gold;"/><text fill="black" x="351.8829867825696" y="542.3533233497539" style="shape-inside: url(#rect48); text-align: center;">(GO1901576) organic substance biosynthetic process</text></g></g><g id="ExportContainer_Group_GO0009853"><rect x="365.959304782216" y="3" width="63.61320724067514" height="77.7091530045015" rx="2" style="stroke: gainsboro; fill: white;"/><g><rect x="366.959304782216" y="4" width="61.61320724067514" height="75.7091530045015" rx="2" style="fill: skyblue;"/><text fill="black" x="366.959304782216" y="4" style="shape-inside: url(#rect49); text-align: center;">(GO0009853, representative) photorespiration</text></g></g><g id="ExportContainer_Group_GO0010118"><rect x="433.57251202289115" y="3" width="72.57587655372157" height="77.7091530045015" rx="2" style="stroke: gainsboro; fill: white;"/><g><rect x="434.57251202289115" y="4" width="70.57587655372157" height="75.7091530045015" rx="2" style="fill: lightgreen;"/><text fill="black" x="434.57251202289115" y="4" style="shape-inside: url(#rect50); text-align: center;">(GO0010118, representative) stomatal movement</text></g></g><g id="ExportContainer_Group_GO0010119"><rect x="510.1483885766127" y="3" width="186.9471285718492" height="77.7091530045015" rx="2" style="stroke: gainsboro; fill: white;"/><g><rect x="511.1483885766127" y="4" width="94.47211789905163" height="75.7091530045015" rx="2" style="fill: violet;"/><text fill="white" x="511.1483885766127" y="4" style="shape-inside: url(#rect51); text-align: center;">(GO0010119, representative) regulation of stomatal movement</text></g><g><rect x="607.6205064756643" y="4" width="51.21017016977032" height="55.8600957767012" rx="2" style="fill: violet;"/><text fill="white" x="607.6205064756643" y="4" style="shape-inside: url(#rect52); text-align: center;">(GO0030162) regulation of proteolysis</text></g><g><rect x="607.6205064756643" y="61.8600957767012" width="51.21017016977032" height="17.8490572278003" rx="2" style="fill: violet;"/><text fill="white" x="607.6205064756643" y="61.8600957767012" style="shape-inside: url(#rect53); text-align: center;">(GO0031047) RNA-mediated gene silencing</text></g><g><rect x="660.8306766454347" y="4" width="35.264840503027244" height="14.809028233029991" rx="2" style="fill: violet;"/><text fill="white" x="660.8306766454347" y="4" style="shape-inside: url(#rect54); text-align: center;">(GO0051246) regulation of protein metabolic process</text></g><g><rect x="660.8306766454347" y="20.80902823302999" width="35.264840503027244" height="58.900124771471496" rx="2" style="fill: violet;"/><text fill="white" x="660.8306766454347" y="20.80902823302999" style="shape-inside: url(#rect55); text-align: center;">(GO0051248) negative regulation of protein metabolic process</text></g></g><g id="ExportContainer_Group_GO0019252"><rect x="701.0955171484619" y="3" width="177.72340836659396" height="77.7091530045015" rx="2" style="stroke: gainsboro; fill: white;"/><g><rect x="702.0955171484619" y="4" width="86.3154583705417" height="75.70915300450152" rx="2" style="fill: khaki;"/><text fill="black" x="702.0955171484619" y="4" style="shape-inside: url(#rect56); text-align: center;">(GO0019252, representative) starch biosynthetic process</text></g><g><rect x="790.4109755190036" y="4" width="87.40794999605225" height="75.7091530045015" rx="2" style="fill: khaki;"/><text fill="black" x="790.4109755190036" y="4" style="shape-inside: url(#rect57); text-align: center;">(GO0005982) starch metabolic process</text></g></g><g id="ExportContainer_Group_GO0019748"><rect x="882.8189255150559" y="3" width="14.181074484944133" height="77.7091530045015" rx="2" style="stroke: gainsboro; fill: white;"/><g><rect x="883.8189255150559" y="4" width="12.181074484944133" height="75.7091530045015" rx="2" style="fill: lightskyblue;"/><text fill="black" x="883.8189255150559" y="4" style="shape-inside: url(#rect58); text-align: center;">(GO0019748, representative) secondary metabolic process</text></g></g><g id="ExportContainer_Group_GO0032501"><rect x="365.959304782216" y="84.7091530045015" width="111.83821950659194" height="1.489125058004774" rx="2" style="stroke: gainsboro; fill: white;"/><g><rect x="366.959304782216" y="84.4537155335039" width="109.83821950659194" height="2" rx="2" style="fill: crimson;"/><text fill="white" x="366.959304782216" y="84.4537155335039" style="shape-inside: url(#rect59); text-align: center;">(GO0032501, representative) multicellular organismal process</text></g></g><g id="ExportContainer_Group_GO0034976"><rect x="365.959304782216" y="90.19827806250628" width="111.83821950659194" height="506.8017219374937" rx="2" style="stroke: gainsboro; fill: white;"/><g><rect x="366.959304782216" y="91.19827806250628" width="109.83821950659194" height="78.28407259915708" rx="2" style="fill: lightseagreen;"/><text fill="white" x="366.959304782216" y="91.19827806250628" style="shape-inside: url(#rect60); text-align: center;">(GO0034976, representative) response to endoplasmic reticulum stress</text></g><g><rect x="366.959304782216" y="171.48235066166336" width="23.709833032444635" height="53.34967797016168" rx="2" style="fill: lightseagreen;"/><text fill="white" x="366.959304782216" y="171.48235066166336" style="shape-inside: url(#rect61); text-align: center;">(GO0000160) phosphorelay signal transduction system</text></g><g><rect x="392.66913781466064" y="171.48235066166336" width="49.605915894474435" height="53.34967797016168" rx="2" style="fill: lightseagreen;"/><text fill="white" x="392.66913781466064" y="171.48235066166336" style="shape-inside: url(#rect62); text-align: center;">(GO0001101) response to acid chemical</text></g><g><rect x="444.2750537091351" y="171.48235066166336" width="32.52247057967287" height="53.34967797016168" rx="2" style="fill: lightseagreen;"/><text fill="white" x="444.2750537091351" y="171.48235066166336" style="shape-inside: url(#rect63); text-align: center;">(GO0006950) response to stress</text></g><g><rect x="366.959304782216" y="226.83202863182504" width="86.99597861551035" height="30.391548810974882" rx="2" style="fill: lightseagreen;"/><text fill="white" x="366.959304782216" y="226.83202863182504" style="shape-inside: url(#rect64); text-align: center;">(GO0006970) response to osmotic stress</text></g><g><rect x="455.95528339772636" y="226.83202863182504" width="20.842240891081588" height="30.391548810974882" rx="2" style="fill: lightseagreen;"/><text fill="white" x="455.95528339772636" y="226.83202863182504" style="shape-inside: url(#rect65); text-align: center;">(GO0006979) response to oxidative stress</text></g><g><rect x="366.959304782216" y="259.2235774427999" width="56.27418035136168" height="87.99948529569377" rx="2" style="fill: lightseagreen;"/><text fill="white" x="366.959304782216" y="259.2235774427999" style="shape-inside: url(#rect66); text-align: center;">(GO0009414) response to water deprivation</text></g><g><rect x="425.2334851335777" y="259.2235774427999" width="51.56403915523026" height="87.99948529569377" rx="2" style="fill: lightseagreen;"/><text fill="white" x="425.2334851335777" y="259.2235774427999" style="shape-inside: url(#rect67); text-align: center;">(GO0009611) response to wounding</text></g><g><rect x="366.959304782216" y="349.2230627384937" width="44.13346052390932" height="58.824860248183256" rx="2" style="fill: lightseagreen;"/><text fill="white" x="366.959304782216" y="349.2230627384937" style="shape-inside: url(#rect68); text-align: center;">(GO0009615) response to virus</text></g><g><rect x="413.09276530612533" y="349.2230627384937" width="63.70475898268262" height="58.824860248183256" rx="2" style="fill: lightseagreen;"/><text fill="white" x="413.09276530612533" y="349.2230627384937" style="shape-inside: url(#rect69); text-align: center;">(GO0009628) response to abiotic stimulus</text></g><g><rect x="366.959304782216" y="410.04792298667695" width="50.254771241654225" height="62.707425200729006" rx="2" style="fill: lightseagreen;"/><text fill="white" x="366.959304782216" y="410.04792298667695" style="shape-inside: url(#rect70); text-align: center;">(GO0009651) response to salt stress</text></g><g><rect x="419.21407602387023" y="410.04792298667695" width="21.502304479682493" height="62.707425200729006" rx="2" style="fill: lightseagreen;"/><text fill="white" x="419.21407602387023" y="410.04792298667695" style="shape-inside: url(#rect71); text-align: center;">(GO0009723) response to ethylene</text></g><g><rect x="442.7163805035527" y="410.04792298667695" width="34.08114378525522" height="62.707425200729006" rx="2" style="fill: lightseagreen;"/><text fill="white" x="442.7163805035527" y="410.04792298667695" style="shape-inside: url(#rect72); text-align: center;">(GO0009743) response to carbohydrate</text></g><g><rect x="366.959304782216" y="474.75534818740596" width="45.26509198043061" height="60.77745703038022" rx="2" style="fill: lightseagreen;"/><text fill="white" x="366.959304782216" y="474.75534818740596" style="shape-inside: url(#rect73); text-align: center;">(GO0009873) ethylene-activated signaling pathway</text></g><g><rect x="414.2243967626466" y="474.75534818740596" width="26.027696302208938" height="60.77745703038022" rx="2" style="fill: lightseagreen;"/><text fill="white" x="414.2243967626466" y="474.75534818740596" style="shape-inside: url(#rect74); text-align: center;">(GO0010033) response to organic substance</text></g><g><rect x="442.25209306485556" y="474.75534818740596" width="34.54543122395239" height="60.77745703038022" rx="2" style="fill: lightseagreen;"/><text fill="white" x="442.25209306485556" y="474.75534818740596" style="shape-inside: url(#rect75); text-align: center;">(GO0010035) response to inorganic substance</text></g><g><rect x="366.959304782216" y="537.5328052177862" width="53.91910975329603" height="58.467194782213824" rx="2" style="fill: lightseagreen;"/><text fill="white" x="366.959304782216" y="537.5328052177862" style="shape-inside: url(#rect76); text-align: center;">(GO0042221) response to chemical</text></g><g><rect x="422.87841453551204" y="537.5328052177862" width="53.91910975329591" height="58.46719478221394" rx="2" style="fill: lightseagreen;"/><text fill="white" x="422.87841453551204" y="537.5328052177862" style="shape-inside: url(#rect77); text-align: center;">(GO1901700) response to oxygen-containing compound</text></g></g><g id="ExportContainer_Group_GO0040007"><rect x="481.79752428880795" y="84.7091530045015" width="11.674364146222729" height="45.278376302633376" rx="2" style="stroke: gainsboro; fill: white;"/><g><rect x="482.79752428880795" y="85.7091530045015" width="9.674364146222729" height="43.278376302633376" rx="2" style="fill: tomato;"/><text fill="white" x="482.79752428880795" y="85.7091530045015" style="shape-inside: url(#rect78); text-align: center;">(GO0040007, representative) growth</text></g></g><g id="ExportContainer_Group_GO0042026"><rect x="497.4718884350307" y="84.7091530045015" width="75.2836889810792" height="45.278376302633376" rx="2" style="stroke: gainsboro; fill: white;"/><g><rect x="498.4718884350307" y="85.7091530045015" width="73.2836889810792" height="43.278376302633376" rx="2" style="fill: royalblue;"/><text fill="white" x="498.4718884350307" y="85.7091530045015" style="shape-inside: url(#rect79); text-align: center;">(GO0042026, representative) protein refolding</text></g></g><g id="ExportContainer_Group_GO0042273"><rect x="576.7555774161099" y="84.7091530045015" width="279.58811222925306" height="45.278376302633376" rx="2" style="stroke: gainsboro; fill: white;"/><g><rect x="577.7555774161099" y="85.7091530045015" width="66.69263910198379" height="43.278376302633376" rx="2" style="fill: mediumseagreen;"/><text fill="white" x="577.7555774161099" y="85.7091530045015" style="shape-inside: url(#rect80); text-align: center;">(GO0042273, representative) ribosomal large subunit biogenesis</text></g><g><rect x="646.4482165180937" y="85.7091530045015" width="57.12412500553273" height="43.278376302633376" rx="2" style="fill: mediumseagreen;"/><text fill="white" x="646.4482165180937" y="85.7091530045015" style="shape-inside: url(#rect81); text-align: center;">(GO0022618) protein-RNA complex assembly</text></g><g><rect x="705.5723415236264" y="85.7091530045015" width="51.74848527759377" height="15.578943100977611" rx="2" style="fill: mediumseagreen;"/><text fill="white" x="705.5723415236264" y="85.7091530045015" style="shape-inside: url(#rect82); text-align: center;">(GO0043933) protein-containing complex organization</text></g><g><rect x="705.5723415236264" y="103.28809610547911" width="51.74848527759377" height="25.699433201655765" rx="2" style="fill: mediumseagreen;"/><text fill="white" x="705.5723415236264" y="103.28809610547911" style="shape-inside: url(#rect83); text-align: center;">(GO0045229) external encapsulating structure organization</text></g><g><rect x="759.3208268012202" y="85.7091530045015" width="48.912441897752615" height="43.278376302633376" rx="2" style="fill: mediumseagreen;"/><text fill="white" x="759.3208268012202" y="85.7091530045015" style="shape-inside: url(#rect84); text-align: center;">(GO0061024) membrane organization</text></g><g><rect x="810.2332686989728" y="85.7091530045015" width="45.11042094639026" height="43.278376302633376" rx="2" style="fill: mediumseagreen;"/><text fill="white" x="810.2332686989728" y="85.7091530045015" style="shape-inside: url(#rect85); text-align: center;">(GO0071826) protein-RNA complex organization</text></g></g><g id="ExportContainer_Group_GO0043094"><rect x="860.3436896453629" y="84.7091530045015" width="36.6563103546373" height="45.278376302633376" rx="2" style="stroke: gainsboro; fill: white;"/><g><rect x="861.3436896453629" y="85.7091530045015" width="34.6563103546373" height="43.278376302633376" rx="2" style="fill: darkorchid;"/><text fill="white" x="861.3436896453629" y="85.7091530045015" style="shape-inside: url(#rect86); text-align: center;">(GO0043094, representative) cellular metabolic compound salvage</text></g></g><g id="ExportContainer_Group_GO0043603"><rect x="481.79752428880795" y="133.98752930713488" width="216.19760953183925" height="138.25651234759243" rx="2" style="stroke: gainsboro; fill: white;"/><g><rect x="482.79752428880795" y="134.98752930713488" width="190.1768573635028" height="136.25651234759243" rx="2" style="fill: darkorange;"/><text fill="white" x="482.79752428880795" y="134.98752930713488" style="shape-inside: url(#rect87); text-align: center;">(GO0043603, representative) amide metabolic process</text></g><g><rect x="674.9743816523107" y="134.98752930713488" width="22.020752168336458" height="136.25651234759243" rx="2" style="fill: darkorange;"/><text fill="white" x="674.9743816523107" y="134.98752930713488" style="shape-inside: url(#rect88); text-align: center;">(GO1901564) organonitrogen compound metabolic process</text></g></g><g id="ExportContainer_Group_GO0045333"><rect x="701.9951338206472" y="133.98752930713488" width="105.70956314851014" height="138.25651234759243" rx="2" style="stroke: gainsboro; fill: white;"/><g><rect x="702.9951338206472" y="134.98752930713488" width="103.70956314851014" height="136.25651234759243" rx="2" style="fill: slateblue;"/><text fill="white" x="702.9951338206472" y="134.98752930713488" style="shape-inside: url(#rect89); text-align: center;">(GO0045333, representative) cellular respiration</text></g></g><g id="ExportContainer_Group_GO0048367"><rect x="811.7046969691573" y="133.98752930713488" width="85.29530303084266" height="138.25651234759243" rx="2" style="stroke: gainsboro; fill: white;"/><g><rect x="812.7046969691573" y="134.98752930713488" width="62.664545244353235" height="40.05491562671267" rx="2" style="fill: lightsalmon;"/><text fill="black" x="812.7046969691573" y="134.98752930713488" style="shape-inside: url(#rect90); text-align: center;">(GO0048367, representative) shoot system development</text></g><g><rect x="877.3692422135106" y="134.98752930713488" width="18.630757786489426" height="40.05491562671267" rx="2" style="fill: lightsalmon;"/><text fill="black" x="877.3692422135106" y="134.98752930713488" style="shape-inside: url(#rect91); text-align: center;">(GO0007275) multicellular organism development</text></g><g><rect x="812.7046969691573" y="177.04244493384755" width="25.32849126733197" height="58.041099959245884" rx="2" style="fill: lightsalmon;"/><text fill="black" x="812.7046969691573" y="177.04244493384755" style="shape-inside: url(#rect92); text-align: center;">(GO0009826) unidimensional cell growth</text></g><g><rect x="840.0331882364893" y="177.04244493384755" width="26.400652872137016" height="58.041099959245884" rx="2" style="fill: lightsalmon;"/><text fill="black" x="840.0331882364893" y="177.04244493384755" style="shape-inside: url(#rect93); text-align: center;">(GO0022622) root system development</text></g><g><rect x="868.4338411086263" y="177.04244493384755" width="27.566158891373675" height="58.041099959245884" rx="2" style="fill: lightsalmon;"/><text fill="black" x="868.4338411086263" y="177.04244493384755" style="shape-inside: url(#rect94); text-align: center;">(GO0048364) root development</text></g><g><rect x="812.7046969691573" y="237.08354489309343" width="36.13869317439185" height="34.16049676163388" rx="2" style="fill: lightsalmon;"/><text fill="black" x="812.7046969691573" y="237.08354489309343" style="shape-inside: url(#rect95); text-align: center;">(GO0090558) plant epidermis development</text></g><g><rect x="850.8433901435492" y="237.08354489309343" width="45.156609856450814" height="34.16049676163388" rx="2" style="fill: lightsalmon;"/><text fill="black" x="850.8433901435492" y="237.08354489309343" style="shape-inside: url(#rect96); text-align: center;">(GO0099402) plant organ development</text></g></g><g id="ExportContainer_Group_GO0051179"><rect x="481.79752428880795" y="276.2440416547273" width="376.287316435535" height="4.403492187325696" rx="2" style="stroke: gainsboro; fill: white;"/><g><rect x="482.79752428880795" y="277.2440416547273" width="374.287316435535" height="2.4034921873256962" rx="2" style="fill: paleturquoise;"/><text fill="black" x="482.79752428880795" y="277.2440416547273" style="shape-inside: url(#rect97); text-align: center;">(GO0051179, representative) localization</text></g></g><g id="ExportContainer_Group_GO0051603"><rect x="481.79752428880795" y="284.647533842053" width="376.287316435535" height="312.352466157947" rx="2" style="stroke: gainsboro; fill: white;"/><g><rect x="482.79752428880795" y="285.647533842053" width="101.25323780518363" height="153.8947962496627" rx="2" style="fill: gold;"/><text fill="black" x="482.79752428880795" y="285.647533842053" style="shape-inside: url(#rect98); text-align: center;">(GO0051603, representative) proteolysis involved in protein catabolic process</text></g><g><rect x="482.79752428880795" y="441.5423300917157" width="101.25323780518363" height="58.154000014530936" rx="2" style="fill: gold;"/><text fill="black" x="482.79752428880795" y="441.5423300917157" style="shape-inside: url(#rect99); text-align: center;">(GO0000209) protein polyubiquitination</text></g><g><rect x="482.79752428880795" y="501.69633010624665" width="101.25323780518363" height="94.30366989375335" rx="2" style="fill: gold;"/><text fill="black" x="482.79752428880795" y="501.69633010624665" style="shape-inside: url(#rect100); text-align: center;">(GO0002181) cytoplasmic translation</text></g><g><rect x="586.0507620939916" y="285.647533842053" width="26.242102241194402" height="108.54931969211611" rx="2" style="fill: gold;"/><text fill="black" x="586.0507620939916" y="285.647533842053" style="shape-inside: url(#rect101); text-align: center;">(GO0006096) glycolytic process</text></g><g><rect x="614.292864335186" y="285.647533842053" width="242.79197638915696" height="108.54931969211611" rx="2" style="fill: gold;"/><text fill="black" x="614.292864335186" y="285.647533842053" style="shape-inside: url(#rect102); text-align: center;">(GO0006412) translation</text></g><g><rect x="586.0507620939916" y="396.1968535341691" width="107.56766555681759" height="76.03347418612037" rx="2" style="fill: gold;"/><text fill="black" x="586.0507620939916" y="396.1968535341691" style="shape-inside: url(#rect103); text-align: center;">(GO0006413) translational initiation</text></g><g><rect x="586.0507620939916" y="474.2303277202895" width="107.56766555681759" height="121.7696722797105" rx="2" style="fill: gold;"/><text fill="black" x="586.0507620939916" y="474.2303277202895" style="shape-inside: url(#rect104); text-align: center;">(GO0006414) translational elongation</text></g><g><rect x="695.6184276508092" y="396.1968535341691" width="42.30110658157503" height="21.649427037572593" rx="2" style="fill: gold;"/><text fill="black" x="695.6184276508092" y="396.1968535341691" style="shape-inside: url(#rect105); text-align: center;">(GO0006643) membrane lipid metabolic process</text></g><g><rect x="739.9195342323842" y="396.1968535341691" width="31.698331401846758" height="21.649427037572593" rx="2" style="fill: gold;"/><text fill="black" x="739.9195342323842" y="396.1968535341691" style="shape-inside: url(#rect106); text-align: center;">(GO0006720) isoprenoid metabolic process</text></g><g><rect x="773.617865634231" y="396.1968535341691" width="36.6084916921958" height="21.649427037572593" rx="2" style="fill: gold;"/><text fill="black" x="773.617865634231" y="396.1968535341691" style="shape-inside: url(#rect107); text-align: center;">(GO0008202) steroid metabolic process</text></g><g><rect x="812.2263573264268" y="396.1968535341691" width="44.8584833979163" height="21.649427037572593" rx="2" style="fill: gold;"/><text fill="black" x="812.2263573264268" y="396.1968535341691" style="shape-inside: url(#rect108); text-align: center;">(GO0008299) isoprenoid biosynthetic process</text></g><g><rect x="695.6184276508092" y="419.8462805717417" width="136.42254418266043" height="97.91640316419551" rx="2" style="fill: gold;"/><text fill="black" x="695.6184276508092" y="419.8462805717417" style="shape-inside: url(#rect109); text-align: center;">(GO0009057) macromolecule catabolic process</text></g><g><rect x="834.0409718334696" y="419.8462805717417" width="23.04386889087334" height="97.91640316419551" rx="2" style="fill: gold;"/><text fill="black" x="834.0409718334696" y="419.8462805717417" style="shape-inside: url(#rect110); text-align: center;">(GO0010467) gene expression</text></g><g><rect x="695.6184276508092" y="519.7626837359372" width="41.10510733558908" height="35.249864726005626" rx="2" style="fill: gold;"/><text fill="black" x="695.6184276508092" y="519.7626837359372" style="shape-inside: url(#rect111); text-align: center;">(GO0016042) lipid catabolic process</text></g><g><rect x="695.6184276508092" y="557.0125484619429" width="41.10510733558908" height="15.991326897575277" rx="2" style="fill: gold;"/><text fill="black" x="695.6184276508092" y="557.0125484619429" style="shape-inside: url(#rect112); text-align: center;">(GO0016051) carbohydrate biosynthetic process</text></g><g><rect x="695.6184276508092" y="575.0038753595181" width="41.10510733558908" height="20.996124640481753" rx="2" style="fill: gold;"/><text fill="black" x="695.6184276508092" y="575.0038753595181" style="shape-inside: url(#rect113); text-align: center;">(GO0016052) carbohydrate catabolic process</text></g><g><rect x="738.7235349863982" y="519.7626837359372" width="96.1815892348061" height="15.587566440103501" rx="2" style="fill: gold;"/><text fill="black" x="738.7235349863982" y="519.7626837359372" style="shape-inside: url(#rect114); text-align: center;">(GO0016125) sterol metabolic process</text></g><g><rect x="738.7235349863982" y="537.3502501760407" width="96.1815892348061" height="58.64974982395927" rx="2" style="fill: gold;"/><text fill="black" x="738.7235349863982" y="537.3502501760407" style="shape-inside: url(#rect115); text-align: center;">(GO0030148) sphingolipid biosynthetic process</text></g><g><rect x="836.9051242212043" y="519.7626837359372" width="20.179716503138593" height="33.93130821411273" rx="2" style="fill: gold;"/><text fill="black" x="836.9051242212043" y="519.7626837359372" style="shape-inside: url(#rect116); text-align: center;">(GO0044242) cellular lipid catabolic process</text></g><g><rect x="836.9051242212043" y="555.69399195005" width="20.179716503138593" height="40.30600804995004" rx="2" style="fill: gold;"/><text fill="black" x="836.9051242212043" y="555.69399195005" style="shape-inside: url(#rect117); text-align: center;">(GO0044272) sulfur compound biosynthetic process</text></g></g><g id="ExportContainer_Group_GO0070085"><rect x="862.0848407243429" y="276.2440416547273" width="34.91515927565706" height="27.770039083477855" rx="2" style="stroke: gainsboro; fill: white;"/><g><rect x="863.0848407243429" y="277.2440416547273" width="32.91515927565706" height="25.770039083477855" rx="2" style="fill: skyblue;"/><text fill="black" x="863.0848407243429" y="277.2440416547273" style="shape-inside: url(#rect118); text-align: center;">(GO0070085, representative) glycosylation</text></g></g><g id="ExportContainer_Group_GO0071554"><rect x="862.0848407243429" y="308.01408073820517" width="34.91515927565706" height="35.44677524010291" rx="2" style="stroke: gainsboro; fill: white;"/><g><rect x="863.0848407243429" y="309.01408073820517" width="32.91515927565706" height="33.44677524010291" rx="2" style="fill: lightgreen;"/><text fill="black" x="863.0848407243429" y="309.01408073820517" style="shape-inside: url(#rect119); text-align: center;">(GO0071554, representative) cell wall organization or biogenesis</text></g></g><g id="ExportContainer_Group_GO0071669"><rect x="862.0848407243429" y="347.4608559783081" width="34.91515927565706" height="98.96867316755214" rx="2" style="stroke: gainsboro; fill: white;"/><g><rect x="863.0848407243429" y="348.4608559783081" width="32.91515927565706" height="96.96867316755214" rx="2" style="fill: violet;"/><text fill="white" x="863.0848407243429" y="348.4608559783081" style="shape-inside: url(#rect120); text-align: center;">(GO0071669, representative) plant-type cell wall organization or biogenesis</text></g></g><g id="ExportContainer_Group_GO1901135"><rect x="862.0848407243429" y="450.4295291458602" width="14.126757968738843" height="46.17331116129202" rx="2" style="stroke: gainsboro; fill: white;"/><g><rect x="863.0848407243429" y="451.4295291458602" width="12.126757968738843" height="44.17331116129202" rx="2" style="fill: khaki;"/><text fill="black" x="863.0848407243429" y="451.4295291458602" style="shape-inside: url(#rect121); text-align: center;">(GO1901135, representative) carbohydrate derivative metabolic process</text></g></g><g id="ExportContainer_Group_GO1901615"><rect x="880.2115986930818" y="450.4295291458602" width="16.788401306918217" height="46.17331116129202" rx="2" style="stroke: gainsboro; fill: white;"/><g><rect x="881.2115986930818" y="451.4295291458602" width="14.788401306918217" height="44.17331116129202" rx="2" style="fill: lightskyblue;"/><text fill="black" x="881.2115986930818" y="451.4295291458602" style="shape-inside: url(#rect122); text-align: center;">(GO1901615, representative) organic hydroxy compound metabolic process</text></g></g><g id="ExportContainer_Group_GO1901657"><rect x="862.0848407243429" y="500.60284030715223" width="34.91515927565706" height="96.39715969284299" rx="2" style="stroke: gainsboro; fill: white;"/><g><rect x="863.0848407243429" y="501.60284030715223" width="32.91515927565706" height="94.39715969284299" rx="2" style="fill: crimson;"/><text fill="white" x="863.0848407243429" y="501.60284030715223" style="shape-inside: url(#rect123); text-align: center;">(GO1901657, representative) glycosyl compound metabolic process</text></g></g></g></svg>