<?xml version="1.0" encoding="UTF-8" standalone="no"?>
<svg id="ExportContainer_SVG" width="900" height="600" viewBox="0 0 900 600" xmlns="http://www.w3.org/2000/svg" xmlns:xlink="http://www.w3.org/1999/xlink" version="2.0" style="font-size:10px;font-family:Calibri,Verdana,Arial,sans-serif"><defs><rect id="rect0" x="4" y="4" width="83.98474265821086" height="43.242336280058666"/><rect id="rect1" x="4" y="53.242336280058666" width="83.98474265821086" height="127.51787676159553"/><rect id="rect2" x="4" y="186.7602130416542" width="83.98474265821086" height="66.55269612664989"/><rect id="rect3" x="4" y="255.3129091683041" width="24.323919994211906" height="44.25368600864846"/><rect id="rect4" x="30.323919994211906" y="255.3129091683041" width="57.66082266399894" height="44.25368600864846"/><rect id="rect5" x="4" y="301.56659517695255" width="69.07433362751073" height="79.65961962693973"/><rect id="rect6" x="75.07433362751073" y="301.56659517695255" width="12.910409030700137" height="79.65961962693979"/><rect id="rect7" x="4" y="387.2262148038923" width="83.98474265821086" height="134.2711225363513"/><rect id="rect8" x="4" y="527.4973373402436" width="83.98474265821086" height="10.11564745376279"/><rect id="rect9" x="4" y="543.6129847940064" width="83.98474265821085" height="15.200355603831895"/><rect id="rect10" x="4" y="560.8133403978383" width="83.98474265821085" height="35.18665960216174"/><rect id="rect11" x="93.98474265821086" y="4" width="106.7288340336609" height="31.855416730488933"/><rect id="rect12" x="93.98474265821086" y="41.85541673048893" width="106.7288340336609" height="108.0219704579388"/><rect id="rect13" x="93.98474265821086" y="151.87738718842775" width="24.615818103709756" height="149.71151719523033"/><rect id="rect14" x="120.60056076192062" y="151.87738718842775" width="80.11301592995115" height="149.71151719523033"/><rect id="rect15" x="93.98474265821086" y="303.5889043836581" width="106.7288340336609" height="98.8722892192036"/><rect id="rect16" x="93.98474265821086" y="404.46119360286167" width="106.7288340336609" height="87.92563608714028"/><rect id="rect17" x="93.98474265821086" y="494.38682969000195" width="106.72883403366087" height="101.61317030999828"/><rect id="rect18" x="206.71357669187176" y="4" width="245.28714097864787" height="126.17334923463662"/><rect id="rect19" x="454.00071767051963" y="4" width="38.99680324567771" height="126.17334923463662"/><rect id="rect20" x="494.99752091619735" y="4" width="38.59445070562026" height="126.17334923463662"/><rect id="rect21" x="535.5919716218176" y="4" width="33.30472203411705" height="126.17334923463662"/><rect id="rect22" x="570.8966936559347" y="4" width="29.16538964785184" height="126.17334923463662"/><rect id="rect23" x="206.71357669187176" y="132.17334923463662" width="75.01265536572964" height="107.62328479942161"/><rect id="rect24" x="206.71357669187176" y="241.79663403405823" width="75.01265536572964" height="70.83366493306147"/><rect id="rect25" x="206.71357669187176" y="314.6302989671197" width="75.01265536572964" height="23.70597139440821"/><rect id="rect26" x="206.71357669187176" y="340.3362703615279" width="75.01265536572964" height="78.14223926055769"/><rect id="rect27" x="283.7262320576014" y="132.17334923463662" width="139.02240040259903" height="99.6592627349734"/><rect id="rect28" x="283.7262320576014" y="233.83261196961" width="139.02240040259903" height="29.42958519986564"/><rect id="rect29" x="283.7262320576014" y="265.26219716947566" width="139.02240040259903" height="153.21631245261"/><rect id="rect30" x="424.74863246020044" y="132.17334923463662" width="133.68449429717424" height="134.38296775689892"/><rect id="rect31" x="560.4331267573747" y="132.17334923463662" width="39.628956546411814" height="134.38296775689892"/><rect id="rect32" x="424.74863246020044" y="268.55631699153554" width="121.65669650701892" height="114.78502756299946"/><rect id="rect33" x="424.74863246020044" y="385.341344554535" width="121.65669650701892" height="33.13716506755054"/><rect id="rect34" x="548.4053289672194" y="268.55631699153554" width="51.65675433656713" height="149.92219263054977"/><rect id="rect35" x="206.71357669187176" y="424.47850962208554" width="169.1821270689818" height="115.84779175169399"/><rect id="rect36" x="206.71357669187176" y="542.3263013737795" width="169.1821270689818" height="53.673698626220585"/><rect id="rect37" x="377.89570376085356" y="424.47850962208554" width="99.83383112104764" height="101.05767953734824"/><rect id="rect38" x="377.89570376085356" y="527.5361891594338" width="99.83383112104764" height="68.46381084056634"/><rect id="rect39" x="479.7295348819012" y="424.47850962208554" width="55.73537528904677" height="171.52149037791457"/><rect id="rect40" x="537.464910170948" y="424.47850962208554" width="62.59717313283852" height="171.52149037791457"/><rect id="rect41" x="606.0620833037865" y="4" width="30.831654214197442" height="80.27730423617616"/><rect id="rect42" x="642.8937375179839" y="4" width="78.99502039590129" height="80.27730423617616"/><rect id="rect43" x="727.8887579138852" y="4" width="85.69446454241233" height="80.27730423617616"/><rect id="rect44" x="819.5832224562976" y="4" width="76.41677754370244" height="80.27730423617616"/><rect id="rect45" x="606.0620833037865" y="90.27730423617616" width="124.66847015928533" height="55.589096403120905"/><rect id="rect46" x="606.0620833037865" y="147.86640063929707" width="124.66847015928533" height="40.60963524748513"/><rect id="rect47" x="736.7305534630718" y="90.27730423617616" width="43.96505088507388" height="98.19873165060604"/><rect id="rect48" x="786.6956043481457" y="90.27730423617616" width="70.20851224017781" height="98.19873165060604"/><rect id="rect49" x="862.9041165883235" y="90.27730423617616" width="33.095883411676596" height="98.19873165060604"/><rect id="rect50" x="606.0620833037865" y="194.4760358867822" width="78.53124836074142" height="89.55001155541305"/><rect id="rect51" x="686.5933316645279" y="194.4760358867822" width="44.220993753359494" height="89.55001155541305"/><rect id="rect52" x="606.0620833037865" y="286.02604744219525" width="46.242959187373" height="22.197692434501448"/><rect id="rect53" x="606.0620833037865" y="310.2237398766967" width="46.242959187373" height="65.86670615286226"/><rect id="rect54" x="654.3050424911595" y="286.02604744219525" width="16.088729099348598" height="90.06439858736371"/><rect id="rect55" x="672.3937715905081" y="286.02604744219525" width="58.42055382737931" height="90.06439858736371"/><rect id="rect56" x="736.8143254178874" y="194.4760358867822" width="28.734561989872418" height="70.67757676052173"/><rect id="rect57" x="767.5488874077598" y="194.4760358867822" width="92.36123346244199" height="70.67757676052173"/><rect id="rect58" x="861.9101208702018" y="194.4760358867822" width="34.08987912979819" height="70.67757676052173"/><rect id="rect59" x="736.8143254178874" y="267.15361264730393" width="79.97570263068008" height="87.3238860607882"/><rect id="rect60" x="736.8143254178874" y="356.4774987080921" width="79.97570263068008" height="19.612947321466834"/><rect id="rect61" x="818.7900280485675" y="267.15361264730393" width="77.20997195143252" height="85.93516114812792"/><rect id="rect62" x="818.7900280485675" y="355.08877379543185" width="77.20997195143264" height="21.001672234127113"/><rect id="rect63" x="606.0620833037865" y="382.09044602955896" width="106.32137943155374" height="95.87983427789078"/><rect id="rect64" x="714.3834627353402" y="382.09044602955896" width="13.531507246723436" height="95.87983427789084"/><rect id="rect65" x="729.9149699820637" y="382.09044602955896" width="57.533550395513316" height="95.87983427789084"/><rect id="rect66" x="606.0620833037865" y="483.97028030744974" width="181.3864370737905" height="112.02971969255026"/><rect id="rect67" x="793.448520377577" y="382.09044602955896" width="16.97868159168513" height="55.414826389348605"/><rect id="rect68" x="816.4272019692621" y="382.09044602955896" width="79.57279803073789" height="55.414826389348605"/><rect id="rect69" x="793.448520377577" y="443.50527241890757" width="102.55147962242302" height="122.01938285161361"/><rect id="rect70" x="793.448520377577" y="571.5246552705212" width="102.55147962242404" height="24.47534472947882"/></defs><g><g id="ExportContainer_Group_GO0000003"><rect x="3" y="3" width="85.98474265821086" height="45.242336280058666" rx="2" style="stroke: gainsboro; fill: white;"/><g><rect x="4" y="4" width="83.98474265821086" height="43.242336280058666" rx="2" style="fill: crimson;"/><text fill="white" x="4" y="4" style="shape-inside: url(#rect0); text-align: center;">(GO0000003, representative) reproduction</text></g></g><g id="ExportContainer_Group_GO0005975"><rect x="3" y="52.242336280058666" width="85.98474265821086" height="129.51787676159552" rx="2" style="stroke: gainsboro; fill: white;"/><g><rect x="4" y="53.242336280058666" width="83.98474265821086" height="127.51787676159553" rx="2" style="fill: lightseagreen;"/><text fill="white" x="4" y="53.242336280058666" style="shape-inside: url(#rect1); text-align: center;">(GO0005975, representative) carbohydrate metabolic process</text></g></g><g id="ExportContainer_Group_GO0006576"><rect x="3" y="185.7602130416542" width="85.98474265821086" height="196.46600176223808" rx="2" style="stroke: gainsboro; fill: white;"/><g><rect x="4" y="186.7602130416542" width="83.98474265821086" height="66.55269612664989" rx="2" style="fill: tomato;"/><text fill="white" x="4" y="186.7602130416542" style="shape-inside: url(#rect2); text-align: center;">(GO0006576, representative) biogenic amine metabolic process</text></g><g><rect x="4" y="255.3129091683041" width="24.323919994211906" height="44.25368600864846" rx="2" style="fill: tomato;"/><text fill="white" x="4" y="255.3129091683041" style="shape-inside: url(#rect3); text-align: center;">(GO0006468) protein phosphorylation</text></g><g><rect x="30.323919994211906" y="255.3129091683041" width="57.66082266399894" height="44.25368600864846" rx="2" style="fill: tomato;"/><text fill="white" x="30.323919994211906" y="255.3129091683041" style="shape-inside: url(#rect4); text-align: center;">(GO0006575) cellular modified amino acid metabolic process</text></g><g><rect x="4" y="301.56659517695255" width="69.07433362751073" height="79.65961962693973" rx="2" style="fill: tomato;"/><text fill="white" x="4" y="301.56659517695255" style="shape-inside: url(#rect5); text-align: center;">(GO0009308) amine metabolic process</text></g><g><rect x="75.07433362751073" y="301.56659517695255" width="12.910409030700137" height="79.65961962693979" rx="2" style="fill: tomato;"/><text fill="white" x="75.07433362751073" y="301.56659517695255" style="shape-inside: url(#rect6); text-align: center;">(GO0070647) protein modification by small protein conjugation or removal</text></g></g><g id="ExportContainer_Group_GO0006629"><rect x="3" y="386.2262148038923" width="85.98474265821086" height="136.2711225363513" rx="2" style="stroke: gainsboro; fill: white;"/><g><rect x="4" y="387.2262148038923" width="83.98474265821086" height="134.2711225363513" rx="2" style="fill: royalblue;"/><text fill="white" x="4" y="387.2262148038923" style="shape-inside: url(#rect7); text-align: center;">(GO0006629, representative) lipid metabolic process</text></g></g><g id="ExportContainer_Group_GO0006790"><rect x="3" y="526.4973373402436" width="85.98474265821086" height="12.11564745376279" rx="2" style="stroke: gainsboro; fill: white;"/><g><rect x="4" y="527.4973373402436" width="83.98474265821086" height="10.11564745376279" rx="2" style="fill: mediumseagreen;"/><text fill="white" x="4" y="527.4973373402436" style="shape-inside: url(#rect8); text-align: center;">(GO0006790, representative) sulfur compound metabolic process</text></g></g><g id="ExportContainer_Group_GO0006811"><rect x="3" y="542.6129847940064" width="85.98474265821086" height="54.387015205993634" rx="2" style="stroke: gainsboro; fill: white;"/><g><rect x="4" y="543.6129847940064" width="83.98474265821085" height="15.200355603831895" rx="2" style="fill: darkorchid;"/><text fill="white" x="4" y="543.6129847940064" style="shape-inside: url(#rect9); text-align: center;">(GO0006811, representative) monoatomic ion transport</text></g><g><rect x="4" y="560.8133403978383" width="83.98474265821085" height="35.18665960216174" rx="2" style="fill: darkorchid;"/><text fill="white" x="4" y="560.8133403978383" style="shape-inside: url(#rect10); text-align: center;">(GO0055085) transmembrane transport</text></g></g><g id="ExportContainer_Group_GO0007154"><rect x="92.98474265821086" y="3" width="108.7288340336609" height="33.85541673048893" rx="2" style="stroke: gainsboro; fill: white;"/><g><rect x="93.98474265821086" y="4" width="106.7288340336609" height="31.855416730488933" rx="2" style="fill: darkorange;"/><text fill="white" x="93.98474265821086" y="4" style="shape-inside: url(#rect11); text-align: center;">(GO0007154, representative) cell communication</text></g></g><g id="ExportContainer_Group_GO0008299"><rect x="92.98474265821086" y="40.85541673048893" width="108.7288340336609" height="556.1445832695113" rx="2" style="stroke: gainsboro; fill: white;"/><g><rect x="93.98474265821086" y="41.85541673048893" width="106.7288340336609" height="108.0219704579388" rx="2" style="fill: slateblue;"/><text fill="white" x="93.98474265821086" y="41.85541673048893" style="shape-inside: url(#rect12); text-align: center;">(GO0008299, representative) isoprenoid biosynthetic process</text></g><g><rect x="93.98474265821086" y="151.87738718842775" width="24.615818103709756" height="149.71151719523033" rx="2" style="fill: slateblue;"/><text fill="white" x="93.98474265821086" y="151.87738718842775" style="shape-inside: url(#rect13); text-align: center;">(GO0006633) fatty acid biosynthetic process</text></g><g><rect x="120.60056076192062" y="151.87738718842775" width="80.11301592995115" height="149.71151719523033" rx="2" style="fill: slateblue;"/><text fill="white" x="120.60056076192062" y="151.87738718842775" style="shape-inside: url(#rect14); text-align: center;">(GO0006720) isoprenoid metabolic process</text></g><g><rect x="93.98474265821086" y="303.5889043836581" width="106.7288340336609" height="98.8722892192036" rx="2" style="fill: slateblue;"/><text fill="white" x="93.98474265821086" y="303.5889043836581" style="shape-inside: url(#rect15); text-align: center;">(GO0008202) steroid metabolic process</text></g><g><rect x="93.98474265821086" y="404.46119360286167" width="106.7288340336609" height="87.92563608714028" rx="2" style="fill: slateblue;"/><text fill="white" x="93.98474265821086" y="404.46119360286167" style="shape-inside: url(#rect16); text-align: center;">(GO0008610) lipid biosynthetic process</text></g><g><rect x="93.98474265821086" y="494.38682969000195" width="106.72883403366087" height="101.61317030999828" rx="2" style="fill: slateblue;"/><text fill="white" x="93.98474265821086" y="494.38682969000195" style="shape-inside: url(#rect17); text-align: center;">(GO0016125) sterol metabolic process</text></g></g><g id="ExportContainer_Group_GO0009733"><rect x="205.71357669187176" y="3" width="395.34850661191473" height="416.47850962208554" rx="2" style="stroke: gainsboro; fill: white;"/><g><rect x="206.71357669187176" y="4" width="245.28714097864787" height="126.17334923463662" rx="2" style="fill: lightsalmon;"/><text fill="black" x="206.71357669187176" y="4" style="shape-inside: url(#rect18); text-align: center;">(GO0009733, representative) response to auxin</text></g><g><rect x="454.00071767051963" y="4" width="38.99680324567771" height="126.17334923463662" rx="2" style="fill: lightsalmon;"/><text fill="black" x="454.00071767051963" y="4" style="shape-inside: url(#rect19); text-align: center;">(GO0001101) response to acid chemical</text></g><g><rect x="494.99752091619735" y="4" width="38.59445070562026" height="126.17334923463662" rx="2" style="fill: lightsalmon;"/><text fill="black" x="494.99752091619735" y="4" style="shape-inside: url(#rect20); text-align: center;">(GO0006950) response to stress</text></g><g><rect x="535.5919716218176" y="4" width="33.30472203411705" height="126.17334923463662" rx="2" style="fill: lightsalmon;"/><text fill="black" x="535.5919716218176" y="4" style="shape-inside: url(#rect21); text-align: center;">(GO0006952) defense response</text></g><g><rect x="570.8966936559347" y="4" width="29.16538964785184" height="126.17334923463662" rx="2" style="fill: lightsalmon;"/><text fill="black" x="570.8966936559347" y="4" style="shape-inside: url(#rect22); text-align: center;">(GO0006979) response to oxidative stress</text></g><g><rect x="206.71357669187176" y="132.17334923463662" width="75.01265536572964" height="107.62328479942161" rx="2" style="fill: lightsalmon;"/><text fill="black" x="206.71357669187176" y="132.17334923463662" style="shape-inside: url(#rect23); text-align: center;">(GO0007165) signal transduction</text></g><g><rect x="206.71357669187176" y="241.79663403405823" width="75.01265536572964" height="70.83366493306147" rx="2" style="fill: lightsalmon;"/><text fill="black" x="206.71357669187176" y="241.79663403405823" style="shape-inside: url(#rect24); text-align: center;">(GO0009414) response to water deprivation</text></g><g><rect x="206.71357669187176" y="314.6302989671197" width="75.01265536572964" height="23.70597139440821" rx="2" style="fill: lightsalmon;"/><text fill="black" x="206.71357669187176" y="314.6302989671197" style="shape-inside: url(#rect25); text-align: center;">(GO0009605) response to external stimulus</text></g><g><rect x="206.71357669187176" y="340.3362703615279" width="75.01265536572964" height="78.14223926055769" rx="2" style="fill: lightsalmon;"/><text fill="black" x="206.71357669187176" y="340.3362703615279" style="shape-inside: url(#rect26); text-align: center;">(GO0009607) response to biotic stimulus</text></g><g><rect x="283.7262320576014" y="132.17334923463662" width="139.02240040259903" height="99.6592627349734" rx="2" style="fill: lightsalmon;"/><text fill="black" x="283.7262320576014" y="132.17334923463662" style="shape-inside: url(#rect27); text-align: center;">(GO0009611) response to wounding</text></g><g><rect x="283.7262320576014" y="233.83261196961" width="139.02240040259903" height="29.42958519986564" rx="2" style="fill: lightsalmon;"/><text fill="black" x="283.7262320576014" y="233.83261196961" style="shape-inside: url(#rect28); text-align: center;">(GO0009628) response to abiotic stimulus</text></g><g><rect x="283.7262320576014" y="265.26219716947566" width="139.02240040259903" height="153.21631245261" rx="2" style="fill: lightsalmon;"/><text fill="black" x="283.7262320576014" y="265.26219716947566" style="shape-inside: url(#rect29); text-align: center;">(GO0009719) response to endogenous stimulus</text></g><g><rect x="424.74863246020044" y="132.17334923463662" width="133.68449429717424" height="134.38296775689892" rx="2" style="fill: lightsalmon;"/><text fill="black" x="424.74863246020044" y="132.17334923463662" style="shape-inside: url(#rect30); text-align: center;">(GO0010033) response to organic substance</text></g><g><rect x="560.4331267573747" y="132.17334923463662" width="39.628956546411814" height="134.38296775689892" rx="2" style="fill: lightsalmon;"/><text fill="black" x="560.4331267573747" y="132.17334923463662" style="shape-inside: url(#rect31); text-align: center;">(GO0010035) response to inorganic substance</text></g><g><rect x="424.74863246020044" y="268.55631699153554" width="121.65669650701892" height="114.78502756299946" rx="2" style="fill: lightsalmon;"/><text fill="black" x="424.74863246020044" y="268.55631699153554" style="shape-inside: url(#rect32); text-align: center;">(GO0042221) response to chemical</text></g><g><rect x="424.74863246020044" y="385.341344554535" width="121.65669650701892" height="33.13716506755054" rx="2" style="fill: lightsalmon;"/><text fill="black" x="424.74863246020044" y="385.341344554535" style="shape-inside: url(#rect33); text-align: center;">(GO0051707) response to other organism</text></g><g><rect x="548.4053289672194" y="268.55631699153554" width="51.65675433656713" height="149.92219263054977" rx="2" style="fill: lightsalmon;"/><text fill="black" x="548.4053289672194" y="268.55631699153554" style="shape-inside: url(#rect34); text-align: center;">(GO1901700) response to oxygen-containing compound</text></g></g><g id="ExportContainer_Group_GO0010411"><rect x="205.71357669187176" y="423.47850962208554" width="395.34850661191473" height="173.52149037791457" rx="2" style="stroke: gainsboro; fill: white;"/><g><rect x="206.71357669187176" y="424.47850962208554" width="169.1821270689818" height="115.84779175169399" rx="2" style="fill: paleturquoise;"/><text fill="black" x="206.71357669187176" y="424.47850962208554" style="shape-inside: url(#rect35); text-align: center;">(GO0010411, representative) xyloglucan metabolic process</text></g><g><rect x="206.71357669187176" y="542.3263013737795" width="169.1821270689818" height="53.673698626220585" rx="2" style="fill: paleturquoise;"/><text fill="black" x="206.71357669187176" y="542.3263013737795" style="shape-inside: url(#rect36); text-align: center;">(GO0005976) polysaccharide metabolic process</text></g><g><rect x="377.89570376085356" y="424.47850962208554" width="99.83383112104764" height="101.05767953734824" rx="2" style="fill: paleturquoise;"/><text fill="black" x="377.89570376085356" y="424.47850962208554" style="shape-inside: url(#rect37); text-align: center;">(GO0005984) disaccharide metabolic process</text></g><g><rect x="377.89570376085356" y="527.5361891594338" width="99.83383112104764" height="68.46381084056634" rx="2" style="fill: paleturquoise;"/><text fill="black" x="377.89570376085356" y="527.5361891594338" style="shape-inside: url(#rect38); text-align: center;">(GO0009311) oligosaccharide metabolic process</text></g><g><rect x="479.7295348819012" y="424.47850962208554" width="55.73537528904677" height="171.52149037791457" rx="2" style="fill: paleturquoise;"/><text fill="black" x="479.7295348819012" y="424.47850962208554" style="shape-inside: url(#rect39); text-align: center;">(GO0044036) cell wall macromolecule metabolic process</text></g><g><rect x="537.464910170948" y="424.47850962208554" width="62.59717313283852" height="171.52149037791457" rx="2" style="fill: paleturquoise;"/><text fill="black" x="537.464910170948" y="424.47850962208554" style="shape-inside: url(#rect40); text-align: center;">(GO0044042) glucan metabolic process</text></g></g><g id="ExportContainer_Group_GO0015979"><rect x="605.0620833037865" y="3" width="32.83165421419744" height="82.27730423617616" rx="2" style="stroke: gainsboro; fill: white;"/><g><rect x="606.0620833037865" y="4" width="30.831654214197442" height="80.27730423617616" rx="2" style="fill: gold;"/><text fill="black" x="606.0620833037865" y="4" style="shape-inside: url(#rect41); text-align: center;">(GO0015979, representative) photosynthesis</text></g></g><g id="ExportContainer_Group_GO0032501"><rect x="641.8937375179839" y="3" width="80.99502039590129" height="82.27730423617616" rx="2" style="stroke: gainsboro; fill: white;"/><g><rect x="642.8937375179839" y="4" width="78.99502039590129" height="80.27730423617616" rx="2" style="fill: skyblue;"/><text fill="black" x="642.8937375179839" y="4" style="shape-inside: url(#rect42); text-align: center;">(GO0032501, representative) multicellular organismal process</text></g></g><g id="ExportContainer_Group_GO0032502"><rect x="726.8887579138852" y="3" width="87.69446454241233" height="82.27730423617616" rx="2" style="stroke: gainsboro; fill: white;"/><g><rect x="727.8887579138852" y="4" width="85.69446454241233" height="80.27730423617616" rx="2" style="fill: lightgreen;"/><text fill="black" x="727.8887579138852" y="4" style="shape-inside: url(#rect43); text-align: center;">(GO0032502, representative) developmental process</text></g></g><g id="ExportContainer_Group_GO0040007"><rect x="818.5832224562976" y="3" width="78.41677754370244" height="82.27730423617616" rx="2" style="stroke: gainsboro; fill: white;"/><g><rect x="819.5832224562976" y="4" width="76.41677754370244" height="80.27730423617616" rx="2" style="fill: violet;"/><text fill="white" x="819.5832224562976" y="4" style="shape-inside: url(#rect44); text-align: center;">(GO0040007, representative) growth</text></g></g><g id="ExportContainer_Group_GO0042180"><rect x="605.0620833037865" y="89.27730423617616" width="126.66847015928533" height="100.19873165060604" rx="2" style="stroke: gainsboro; fill: white;"/><g><rect x="606.0620833037865" y="90.27730423617616" width="124.66847015928533" height="55.589096403120905" rx="2" style="fill: khaki;"/><text fill="black" x="606.0620833037865" y="90.27730423617616" style="shape-inside: url(#rect45); text-align: center;">(GO0042180, representative) cellular ketone metabolic process</text></g><g><rect x="606.0620833037865" y="147.86640063929707" width="124.66847015928533" height="40.60963524748513" rx="2" style="fill: khaki;"/><text fill="black" x="606.0620833037865" y="147.86640063929707" style="shape-inside: url(#rect46); text-align: center;">(GO0009072) aromatic amino acid metabolic process</text></g></g><g id="ExportContainer_Group_GO0042440"><rect x="735.7305534630718" y="89.27730423617616" width="45.96505088507388" height="100.19873165060604" rx="2" style="stroke: gainsboro; fill: white;"/><g><rect x="736.7305534630718" y="90.27730423617616" width="43.96505088507388" height="98.19873165060604" rx="2" style="fill: lightskyblue;"/><text fill="black" x="736.7305534630718" y="90.27730423617616" style="shape-inside: url(#rect47); text-align: center;">(GO0042440, representative) pigment metabolic process</text></g></g><g id="ExportContainer_Group_GO0045229"><rect x="785.6956043481457" y="89.27730423617616" width="72.20851224017781" height="100.19873165060604" rx="2" style="stroke: gainsboro; fill: white;"/><g><rect x="786.6956043481457" y="90.27730423617616" width="70.20851224017781" height="98.19873165060604" rx="2" style="fill: crimson;"/><text fill="white" x="786.6956043481457" y="90.27730423617616" style="shape-inside: url(#rect48); text-align: center;">(GO0045229, representative) external encapsulating structure organization</text></g></g><g id="ExportContainer_Group_GO0046148"><rect x="861.9041165883235" y="89.27730423617616" width="35.095883411676596" height="100.19873165060604" rx="2" style="stroke: gainsboro; fill: white;"/><g><rect x="862.9041165883235" y="90.27730423617616" width="33.095883411676596" height="98.19873165060604" rx="2" style="fill: lightseagreen;"/><text fill="white" x="862.9041165883235" y="90.27730423617616" style="shape-inside: url(#rect49); text-align: center;">(GO0046148, representative) pigment biosynthetic process</text></g></g><g id="ExportContainer_Group_GO0046700"><rect x="605.0620833037865" y="193.4760358867822" width="126.75224211410091" height="183.61441014277676" rx="2" style="stroke: gainsboro; fill: white;"/><g><rect x="606.0620833037865" y="194.4760358867822" width="78.53124836074142" height="89.55001155541305" rx="2" style="fill: tomato;"/><text fill="white" x="606.0620833037865" y="194.4760358867822" style="shape-inside: url(#rect50); text-align: center;">(GO0046700, representative) heterocycle catabolic process</text></g><g><rect x="686.5933316645279" y="194.4760358867822" width="44.220993753359494" height="89.55001155541305" rx="2" style="fill: tomato;"/><text fill="white" x="686.5933316645279" y="194.4760358867822" style="shape-inside: url(#rect51); text-align: center;">(GO0006351) DNA-templated transcription</text></g><g><rect x="606.0620833037865" y="286.02604744219525" width="46.242959187373" height="22.197692434501448" rx="2" style="fill: tomato;"/><text fill="white" x="606.0620833037865" y="286.02604744219525" style="shape-inside: url(#rect52); text-align: center;">(GO0006511) ubiquitin-dependent protein catabolic process</text></g><g><rect x="606.0620833037865" y="310.2237398766967" width="46.242959187373" height="65.86670615286226" rx="2" style="fill: tomato;"/><text fill="white" x="606.0620833037865" y="310.2237398766967" style="shape-inside: url(#rect53); text-align: center;">(GO0009057) macromolecule catabolic process</text></g><g><rect x="654.3050424911595" y="286.02604744219525" width="16.088729099348598" height="90.06439858736371" rx="2" style="fill: tomato;"/><text fill="white" x="654.3050424911595" y="286.02604744219525" style="shape-inside: url(#rect54); text-align: center;">(GO0016052) carbohydrate catabolic process</text></g><g><rect x="672.3937715905081" y="286.02604744219525" width="58.42055382737931" height="90.06439858736371" rx="2" style="fill: tomato;"/><text fill="white" x="672.3937715905081" y="286.02604744219525" style="shape-inside: url(#rect55); text-align: center;">(GO1901361) organic cyclic compound catabolic process</text></g></g><g id="ExportContainer_Group_GO0048583"><rect x="735.8143254178874" y="193.4760358867822" width="161.1856745821126" height="183.61441014277676" rx="2" style="stroke: gainsboro; fill: white;"/><g><rect x="736.8143254178874" y="194.4760358867822" width="28.734561989872418" height="70.67757676052173" rx="2" style="fill: royalblue;"/><text fill="white" x="736.8143254178874" y="194.4760358867822" style="shape-inside: url(#rect56); text-align: center;">(GO0048583, representative) regulation of response to stimulus</text></g><g><rect x="767.5488874077598" y="194.4760358867822" width="92.36123346244199" height="70.67757676052173" rx="2" style="fill: royalblue;"/><text fill="white" x="767.5488874077598" y="194.4760358867822" style="shape-inside: url(#rect57); text-align: center;">(GO0006355) regulation of DNA-templated transcription</text></g><g><rect x="861.9101208702018" y="194.4760358867822" width="34.08987912979819" height="70.67757676052173" rx="2" style="fill: royalblue;"/><text fill="white" x="861.9101208702018" y="194.4760358867822" style="shape-inside: url(#rect58); text-align: center;">(GO0019222) regulation of metabolic process</text></g><g><rect x="736.8143254178874" y="267.15361264730393" width="79.97570263068008" height="87.3238860607882" rx="2" style="fill: royalblue;"/><text fill="white" x="736.8143254178874" y="267.15361264730393" style="shape-inside: url(#rect59); text-align: center;">(GO0023052) signaling</text></g><g><rect x="736.8143254178874" y="356.4774987080921" width="79.97570263068008" height="19.612947321466834" rx="2" style="fill: royalblue;"/><text fill="white" x="736.8143254178874" y="356.4774987080921" style="shape-inside: url(#rect60); text-align: center;">(GO0048518) positive regulation of biological process</text></g><g><rect x="818.7900280485675" y="267.15361264730393" width="77.20997195143252" height="85.93516114812792" rx="2" style="fill: royalblue;"/><text fill="white" x="818.7900280485675" y="267.15361264730393" style="shape-inside: url(#rect61); text-align: center;">(GO0050789) regulation of biological process</text></g><g><rect x="818.7900280485675" y="355.08877379543185" width="77.20997195143264" height="21.001672234127113" rx="2" style="fill: royalblue;"/><text fill="white" x="818.7900280485675" y="355.08877379543185" style="shape-inside: url(#rect62); text-align: center;">(GO0050793) regulation of developmental process</text></g></g><g id="ExportContainer_Group_GO0048731"><rect x="605.0620833037865" y="381.09044602955896" width="183.3864370737905" height="97.87983427789078" rx="2" style="stroke: gainsboro; fill: white;"/><g><rect x="606.0620833037865" y="382.09044602955896" width="106.32137943155374" height="95.87983427789078" rx="2" style="fill: mediumseagreen;"/><text fill="white" x="606.0620833037865" y="382.09044602955896" style="shape-inside: url(#rect63); text-align: center;">(GO0048731, representative) system development</text></g><g><rect x="714.3834627353402" y="382.09044602955896" width="13.531507246723436" height="95.87983427789084" rx="2" style="fill: mediumseagreen;"/><text fill="white" x="714.3834627353402" y="382.09044602955896" style="shape-inside: url(#rect64); text-align: center;">(GO0032989) cellular component morphogenesis</text></g><g><rect x="729.9149699820637" y="382.09044602955896" width="57.533550395513316" height="95.87983427789084" rx="2" style="fill: mediumseagreen;"/><text fill="white" x="729.9149699820637" y="382.09044602955896" style="shape-inside: url(#rect65); text-align: center;">(GO0048589) developmental growth</text></g></g><g id="ExportContainer_Group_GO0050896"><rect x="605.0620833037865" y="482.97028030744974" width="183.3864370737905" height="114.02971969255026" rx="2" style="stroke: gainsboro; fill: white;"/><g><rect x="606.0620833037865" y="483.97028030744974" width="181.3864370737905" height="112.02971969255026" rx="2" style="fill: darkorchid;"/><text fill="white" x="606.0620833037865" y="483.97028030744974" style="shape-inside: url(#rect66); text-align: center;">(GO0050896, representative) response to stimulus</text></g></g><g id="ExportContainer_Group_GO0051179"><rect x="792.448520377577" y="381.09044602955896" width="18.97868159168513" height="57.414826389348605" rx="2" style="stroke: gainsboro; fill: white;"/><g><rect x="793.448520377577" y="382.09044602955896" width="16.97868159168513" height="55.414826389348605" rx="2" style="fill: darkorange;"/><text fill="white" x="793.448520377577" y="382.09044602955896" style="shape-inside: url(#rect67); text-align: center;">(GO0051179, representative) localization</text></g></g><g id="ExportContainer_Group_GO0065007"><rect x="815.4272019692621" y="381.09044602955896" width="81.57279803073789" height="57.414826389348605" rx="2" style="stroke: gainsboro; fill: white;"/><g><rect x="816.4272019692621" y="382.09044602955896" width="79.57279803073789" height="55.414826389348605" rx="2" style="fill: slateblue;"/><text fill="white" x="816.4272019692621" y="382.09044602955896" style="shape-inside: url(#rect68); text-align: center;">(GO0065007, representative) biological regulation</text></g></g><g id="ExportContainer_Group_GO0071554"><rect x="792.448520377577" y="442.50527241890757" width="104.55147962242302" height="124.01938285161361" rx="2" style="stroke: gainsboro; fill: white;"/><g><rect x="793.448520377577" y="443.50527241890757" width="102.55147962242302" height="122.01938285161361" rx="2" style="fill: lightsalmon;"/><text fill="black" x="793.448520377577" y="443.50527241890757" style="shape-inside: url(#rect69); text-align: center;">(GO0071554, representative) cell wall organization or biogenesis</text></g></g><g id="ExportContainer_Group_GO1901615"><rect x="792.448520377577" y="570.5246552705212" width="104.55147962242404" height="26.47534472947882" rx="2" style="stroke: gainsboro; fill: white;"/><g><rect x="793.448520377577" y="571.5246552705212" width="102.55147962242404" height="24.47534472947882" rx="2" style="fill: paleturquoise;"/><text fill="black" x="793.448520377577" y="571.5246552705212" style="shape-inside: url(#rect70); text-align: center;">(GO1901615, representative) organic hydroxy compound metabolic process</text></g></g></g></svg>